# xmcd
#
# Track frame offsets: 
#        150
#        13760
#        30391
#        44605
#        74266
#        91942
#        111749
#        142778
#        162843
#        180526
#        206376
#        210813
#        240035
#
# Disc length: 3434 seconds
#
# Revision: 0
# Processed by: cddbd v1.5.2PL0 Copyright (c) Steve Scherf et al.
# Submitted via: ExactAudioCopy v1.3
#
DISCID=9f0d680d
DTITLE=Big Daddy Wilson and Mississippi Grave Diggers - Get on Your Knee
DTITLE=s and Pray
DYEAR=2004
DGENRE=Blues
TTITLE0=San Francisco Bay
TTITLE1=Hand It Over
TTITLE2=Hard Times
TTITLE3=Help Me
TTITLE4=Railroad Worksong
TTITLE5=You Can Love Yourself
TTITLE6=Summertime
TTITLE7=Swing Low
TTITLE8=Big Boss Man
TTITLE9=Tell Ol' Bill
TTITLE10=Intro
TTITLE11=Summertime (Remix by Jutasi Tamás)
TTITLE12=Railroad Worksong (Remix by Vonobox)
EXTD=
EXTT0=
EXTT1=
EXTT2=
EXTT3=
EXTT4=
EXTT5=
EXTT6=
EXTT7=
EXTT8=
EXTT9=
EXTT10=
EXTT11=
EXTT12=
PLAYORDER=
